<?xml version="1.0" encoding="UTF-8"?>
<svg data-bbox="0 0.069 1257.285 298.134" viewBox="0 0 1257.286 298.201" xmlns="http://www.w3.org/2000/svg" data-type="ugc">
    <g>
        <defs>
            <linearGradient gradientUnits="userSpaceOnUse" gradientTransform="rotate(6.291 563.85 157.417)" y2="170.497" x2="530.153" y1="170.497" x1="232.338" id="b74307d5-19c4-400a-a3a3-6c5b0ceec4b3">
                <stop stop-color="#3fa9f5" offset="0"/>
                <stop stop-opacity=".982" stop-color="#3ea6f1" offset=".116"/>
                <stop stop-opacity=".928" stop-color="#3a9de3" offset=".242"/>
                <stop stop-opacity=".838" stop-color="#358ecd" offset=".375"/>
                <stop stop-opacity=".712" stop-color="#2d78af" offset=".511"/>
                <stop stop-opacity=".551" stop-color="#235d87" offset=".649"/>
                <stop stop-opacity=".353" stop-color="#163c56" offset=".791"/>
                <stop stop-opacity=".124" stop-color="#08151e" offset=".931"/>
                <stop stop-opacity="0" offset="1"/>
            </linearGradient>
        </defs>
        <path transform="translate(-17.77 -1.308)" d="M312.701 282.9a148.18 148.18 0 0 1-44.972-35.616c-53.41-62.407-46.096-156.64 16.306-210.06A148.863 148.863 0 0 1 494.094 53.53c53.414 62.408 46.098 156.642-16.31 210.062A148.497 148.497 0 0 1 312.702 282.9Zm135.07-262.36a145.56 145.56 0 0 0-161.817 18.925c-61.167 52.364-68.337 144.73-15.983 205.9a145.902 145.902 0 0 0 205.895 15.986c61.173-52.361 68.344-144.73 15.986-205.9a145.234 145.234 0 0 0-44.08-34.911Z" fill="url(#b74307d5-19c4-400a-a3a3-6c5b0ceec4b3)"/>
        <path d="M37.233 134.145v5.412H21.87v42.146h-6.436v-42.146H0v-5.412Z" fill="#ffffff"/>
        <path d="M109.116 181.703h-6.473v-21.64H77.026v21.64h-6.472v-47.558h6.473v21.21h25.617v-21.21h6.472Z" fill="#ffffff"/>
        <path d="M176.587 134.145v5.246h-22.83v15.797h18.483v5.042h-18.482v16.227h22.83v5.246h-29.303v-47.558Z" fill="#ffffff"/>
        <path d="M286.244 166.186c.232.588.454 1.176.676 1.773.223-.616.454-1.208.7-1.773.245-.565.518-1.134.828-1.708l16.094-29.238a1.913 1.913 0 0 1 .898-.93 4.099 4.099 0 0 1 1.324-.167h4.75v47.558h-5.644v-34.947a39.377 39.377 0 0 1 .135-3.12l-16.297 29.738a2.551 2.551 0 0 1-2.324 1.49h-.926a2.561 2.561 0 0 1-2.325-1.49l-16.658-29.835c.065.574.116 1.138.148 1.69.032.555.05 1.065.05 1.527v34.947h-5.643v-47.559h4.75a4.1 4.1 0 0 1 1.325.166 1.912 1.912 0 0 1 .898.93l16.427 29.27a13.39 13.39 0 0 1 .814 1.677Z" fill="#ffffff"/>
        <path d="M357.276 181.701h-6.436v-47.559h6.436Z" fill="#ffffff"/>
        <path d="M437.787 157.94a26.754 26.754 0 0 1-1.694 9.723 21.594 21.594 0 0 1-4.778 7.5 21.362 21.362 0 0 1-7.404 4.83 25.739 25.739 0 0 1-9.556 1.708h-17.792v-47.559h17.792a25.739 25.739 0 0 1 9.556 1.708 21.272 21.272 0 0 1 7.404 4.848 21.826 21.826 0 0 1 4.778 7.514 26.762 26.762 0 0 1 1.694 9.727Zm-6.607 0a23.879 23.879 0 0 0-1.194-7.834 16.582 16.582 0 0 0-3.385-5.843 14.49 14.49 0 0 0-5.31-3.648 18.321 18.321 0 0 0-6.936-1.259h-11.32v37.136h11.32a18.322 18.322 0 0 0 6.936-1.264 14.515 14.515 0 0 0 5.31-3.634 16.335 16.335 0 0 0 3.385-5.825 23.87 23.87 0 0 0 1.194-7.829Z" fill="#ffffff"/>
        <path d="M477.692 134.36a3.353 3.353 0 0 1 .95.88l27.538 35.84a24.11 24.11 0 0 1-.13-1.676 37.425 37.425 0 0 1-.033-1.575v-33.686h5.644v47.558h-3.255a2.772 2.772 0 0 1-1.277-.264 3.283 3.283 0 0 1-1.014-.898l-27.51-35.808c.045.551.078 1.093.101 1.625.019.533.032 1.019.032 1.458v33.887h-5.643v-47.559h3.32a2.893 2.893 0 0 1 1.277.217Z" fill="#ffffff"/>
        <path d="M557.46 181.701h-6.44v-47.559h6.44Z" fill="#ffffff"/>
        <path d="M617.954 177.02a31.846 31.846 0 0 0 3.537-.18 22.72 22.72 0 0 0 3.037-.547 20.772 20.772 0 0 0 2.686-.88 27.37 27.37 0 0 0 2.523-1.18v-10.487h-7.366a1.379 1.379 0 0 1-1.01-.366 1.17 1.17 0 0 1-.384-.893v-3.653h14.603v18.255a26.36 26.36 0 0 1-3.737 2.255 25.005 25.005 0 0 1-4.148 1.611 30.463 30.463 0 0 1-4.727.963 44.667 44.667 0 0 1-5.477.315 24.701 24.701 0 0 1-9.492-1.778 21.87 21.87 0 0 1-7.435-4.977 22.753 22.753 0 0 1-4.861-7.68 27.087 27.087 0 0 1-1.741-9.858 27.581 27.581 0 0 1 1.713-9.927 21.33 21.33 0 0 1 12.542-12.644 27.482 27.482 0 0 1 10.07-1.754 31.026 31.026 0 0 1 5.246.412 24.634 24.634 0 0 1 4.496 1.194 21.397 21.397 0 0 1 3.833 1.894 23.413 23.413 0 0 1 3.287 2.505l-1.824 2.921a1.684 1.684 0 0 1-1.463.894 2.346 2.346 0 0 1-1.162-.366 35.165 35.165 0 0 1-1.857-1.125 15.551 15.551 0 0 0-2.51-1.278 19.802 19.802 0 0 0-3.48-1.046 23.021 23.021 0 0 0-4.76-.43 19.248 19.248 0 0 0-7.27 1.31 15.397 15.397 0 0 0-5.546 3.75 16.68 16.68 0 0 0-3.519 5.907 23.314 23.314 0 0 0-1.222 7.783 23.572 23.572 0 0 0 1.278 8.047 16.97 16.97 0 0 0 3.597 5.99 15.624 15.624 0 0 0 5.51 3.751 18.547 18.547 0 0 0 7.033 1.292Z" fill="#ffffff"/>
        <path d="M710.58 181.701h-6.474v-21.64h-25.621v21.64h-6.473v-47.559h6.473v21.21h25.621v-21.21h6.473Z" fill="#ffffff"/>
        <path d="M781.134 134.142v5.413h-15.367v42.146h-6.435v-42.146h-15.436v-5.412Z" fill="#ffffff"/>
        <path d="M868.568 141.578a2.607 2.607 0 0 1-.63.745 1.4 1.4 0 0 1-.865.25 2.292 2.292 0 0 1-1.306-.564 21.503 21.503 0 0 0-1.893-1.246 15.594 15.594 0 0 0-2.755-1.245 11.88 11.88 0 0 0-3.898-.56 11.578 11.578 0 0 0-3.815.578 8.128 8.128 0 0 0-2.779 1.58 6.414 6.414 0 0 0-1.67 2.337 7.444 7.444 0 0 0-.565 2.903 5.382 5.382 0 0 0 .976 3.301 8.496 8.496 0 0 0 2.593 2.241 19.657 19.657 0 0 0 3.648 1.611q2.042.68 4.181 1.408c1.43.49 2.82 1.037 4.18 1.644a14.91 14.91 0 0 1 3.654 2.305 10.567 10.567 0 0 1 2.588 3.422 11.365 11.365 0 0 1 .981 4.977 16.042 16.042 0 0 1-1.065 5.856 13.534 13.534 0 0 1-3.102 4.765 14.557 14.557 0 0 1-5.009 3.185 18.473 18.473 0 0 1-6.76 1.162 20.612 20.612 0 0 1-8.407-1.676 19.797 19.797 0 0 1-6.492-4.533l1.862-3.05a2.348 2.348 0 0 1 .648-.616 1.488 1.488 0 0 1 .843-.25 2.627 2.627 0 0 1 1.592.75 27.375 27.375 0 0 0 2.24 1.643 17.128 17.128 0 0 0 3.251 1.64 12.829 12.829 0 0 0 4.667.75 12.246 12.246 0 0 0 4.084-.635 8.573 8.573 0 0 0 3.032-1.774 7.757 7.757 0 0 0 1.912-2.736 9.213 9.213 0 0 0 .658-3.55 6.002 6.002 0 0 0-.972-3.538 8.226 8.226 0 0 0-2.575-2.306 17.95 17.95 0 0 0-3.634-1.574q-2.042-.653-4.18-1.329a42.43 42.43 0 0 1-4.187-1.579 13.56 13.56 0 0 1-3.63-2.319 10.688 10.688 0 0 1-2.574-3.57 13.023 13.023 0 0 1 2.839-14.352 13.75 13.75 0 0 1 4.597-2.922 16.786 16.786 0 0 1 6.288-1.092 20.077 20.077 0 0 1 7.268 1.26 16.776 16.776 0 0 1 5.741 3.647Z" fill="#ffffff"/>
        <path d="M944.503 181.701h-6.473v-21.64h-25.622v21.64h-6.472v-47.559h6.472v21.21h25.622v-21.21h6.473Z" fill="#ffffff"/>
        <path d="M1026.838 157.94a27.425 27.425 0 0 1-1.695 9.806 22.464 22.464 0 0 1-4.778 7.681 21.407 21.407 0 0 1-7.417 4.996 26.633 26.633 0 0 1-19.135 0 21.434 21.434 0 0 1-7.403-4.996 22.457 22.457 0 0 1-4.778-7.681 29.292 29.292 0 0 1 0-19.612 22.673 22.673 0 0 1 4.778-7.7 21.506 21.506 0 0 1 7.403-5.027 26.435 26.435 0 0 1 19.135 0 21.48 21.48 0 0 1 7.417 5.028 22.68 22.68 0 0 1 4.778 7.699 27.392 27.392 0 0 1 1.695 9.806Zm-6.607 0a24.175 24.175 0 0 0-1.194-7.866 16.624 16.624 0 0 0-3.385-5.89 14.738 14.738 0 0 0-5.31-3.703 19.35 19.35 0 0 0-13.904 0 14.813 14.813 0 0 0-5.329 3.704 16.453 16.453 0 0 0-3.403 5.889 26.443 26.443 0 0 0 0 15.714 16.549 16.549 0 0 0 3.403 5.875 14.642 14.642 0 0 0 5.33 3.68 19.55 19.55 0 0 0 13.903 0 14.568 14.568 0 0 0 5.31-3.68 16.722 16.722 0 0 0 3.385-5.875 24.021 24.021 0 0 0 1.194-7.848Z" fill="#ffffff"/>
        <path d="M1056.867 134.142h5.343a2.28 2.28 0 0 1 1.426.431 2.12 2.12 0 0 1 .764 1.097l9.82 33.053c.18.597.343 1.24.481 1.926.149.685.288 1.408.417 2.158.158-.75.31-1.477.463-2.177a17.328 17.328 0 0 1 .537-1.907l11.181-33.053a2.468 2.468 0 0 1 .783-1.046 2.127 2.127 0 0 1 1.408-.481h1.86a2.207 2.207 0 0 1 1.408.43 2.35 2.35 0 0 1 .778 1.097l11.121 33.053a32.656 32.656 0 0 1 1.06 3.95c.134-.727.255-1.427.366-2.089a14.654 14.654 0 0 1 .43-1.86l9.858-33.054a2.071 2.071 0 0 1 .75-1.06 2.168 2.168 0 0 1 1.407-.467h5.01l-14.835 47.558h-5.773l-12.047-36.276a18.793 18.793 0 0 1-.662-2.389c-.111.445-.217.87-.315 1.279a13.9 13.9 0 0 1-.315 1.11l-12.116 36.276h-5.774Z" fill="#ffffff"/>
        <path d="M1185.666 134.142v5.246h-22.83v15.797h18.482v5.042h-18.482v16.228h22.83v5.246h-29.303v-47.559Z" fill="#ffffff"/>
        <path d="M1228.543 161.857v19.844h-6.408v-47.559h13.445a29.431 29.431 0 0 1 7.797.912 14.958 14.958 0 0 1 5.426 2.639 10.585 10.585 0 0 1 3.167 4.167 13.916 13.916 0 0 1 1.032 5.458 13.66 13.66 0 0 1-.796 4.713 12.45 12.45 0 0 1-2.31 3.931 13.765 13.765 0 0 1-3.68 2.972 18.22 18.22 0 0 1-4.932 1.857 6.871 6.871 0 0 1 2.13 2.023l13.871 18.886h-5.713a2.81 2.81 0 0 1-2.584-1.362l-12.348-16.991a3.54 3.54 0 0 0-1.226-1.144 4.451 4.451 0 0 0-1.991-.347Zm0-4.68h6.736a16.374 16.374 0 0 0 4.959-.681 10.103 10.103 0 0 0 3.588-1.927 7.97 7.97 0 0 0 2.172-2.967 9.655 9.655 0 0 0 .731-3.82 7.58 7.58 0 0 0-2.806-6.403q-2.806-2.16-8.343-2.158h-7.037Z" fill="#ffffff"/>
    </g>
</svg>
